<svg width="25" height="16" viewBox="0 0 25 16" fill="none" xmlns="http://www.w3.org/2000/svg">
<path d="M8.33761 9H10.9526V6H13.9265V9H16.5414L12.4395 13L8.33761 9ZM19.9768 6.04C22.643 6.22 24.7453 8.36 24.7453 11C24.7453 11.6566 24.6126 12.3068 24.355 12.9134C24.0973 13.52 23.7196 14.0712 23.2435 14.5355C22.7674 14.9998 22.2021 15.3681 21.58 15.6194C20.958 15.8707 20.2912 16 19.6179 16H6.28666C4.65481 16 3.08981 15.3679 1.93592 14.2426C0.782036 13.1174 0.133789 11.5913 0.133789 10C0.133789 6.91 2.53341 4.36 5.6201 4.04C6.90194 1.64 9.47589 0 12.4395 0C16.1723 0 19.2795 2.59 19.9768 6.04ZM19.6179 14C20.4338 14 21.2163 13.6839 21.7932 13.1213C22.3702 12.5587 22.6943 11.7956 22.6943 11C22.6943 9.45 21.4432 8.14 19.8435 8.04L18.2745 7.93L17.9668 6.43C17.4439 3.86 15.1263 2 12.4395 2C10.327 2 8.41965 3.14 7.44545 4.97L6.93271 5.92L5.83545 6.03C3.75373 6.24 2.18474 7.95 2.18474 10C2.18474 11.0609 2.61691 12.0783 3.38617 12.8284C4.15542 13.5786 5.19876 14 6.28666 14H19.6179Z" fill="#1B49FF"/>
</svg>
